<?xml version="1.0" encoding="utf-8"?>
<!-- Generator: Adobe Illustrator 23.0.3, SVG Export Plug-In . SVG Version: 6.00 Build 0)  -->
<svg version="1.1" id="Layer_1" xmlns="http://www.w3.org/2000/svg" xmlns:xlink="http://www.w3.org/1999/xlink" x="0px" y="0px"
	 viewBox="0 0 472.9 612" style="enable-background:new 0 0 472.9 612;" xml:space="preserve">
<style type="text/css">
	.st0{fill:#18BC9C;}
	.st1{fill:#FFFFFF;}
</style>
<path class="st0" d="M6.4,14.9c6.1-1.8,15.7-3.7,29.1-5.8C48.9,7,62.5,6,76.5,6c13.4,0,25.3,0.9,36,2.7c10.6,1.8,19.6,5.3,26.9,10.6
	c7.3,5.3,12.8,12.5,16.4,21.7c3.6,9.1,5.5,21.1,5.5,35.9v86.8c15.1-5.9,29.6-10,43.2-12.4c13.7-2.4,28.7-3.5,45.1-3.5
	c29.1,0,56.8,5,82.9,15c26.1,10,49.2,24.6,69.3,43.9c20.1,19.2,35.8,43,47.3,71.3c11.5,28.3,17.3,61.2,17.3,98.4
	c0,38.5-6,71.9-17.8,100.7c-11.8,28.6-28.4,52.5-49.6,71.3c-21.3,18.9-47.2,33.3-77.9,43c-30.7,9.7-64.5,14.6-101.6,14.6
	c-40,0-74.1-4.6-102-13.7c-27.9-9.1-51.6-20.5-71-34.2c-26.8-18.3-40-42-40-70.9L6.4,14.9L6.4,14.9z"/>
<path class="st1" d="M230.5,497.9c-61.5,0-111.6-50-111.6-111.6S169,274.8,230.5,274.8s111.6,50,111.6,111.6
	c0,22.9-6.9,44.9-20,63.7l-1.9,2.7l11.7,32.2c0.2,0.7,0.2,1.3-0.2,1.9c-0.3,0.5-1,1-1.7,1l0,0c-0.2,0-0.5,0-0.8-0.2L296.9,476
	l-2.7,1.9C275.4,491,253.4,497.9,230.5,497.9z"/>
<polygon class="st1" points="379.6,533.8 248.3,326.2 166.5,411.6 "/>
</svg>
